<?xml version="1.0" encoding="UTF-8" standalone="no"?><svg xmlns="http://www.w3.org/2000/svg" xmlns:xlink="http://www.w3.org/1999/xlink" fill="#000000" height="226.4" preserveAspectRatio="xMidYMid meet" version="1" viewBox="0.0 0.0 334.0 226.4" width="334" zoomAndPan="magnify"><defs><clipPath id="a"><path d="M 114 74 L 334 74 L 334 226.398438 L 114 226.398438 Z M 114 74"/></clipPath><clipPath id="b"><path d="M 0 74 L 220 74 L 220 226.398438 L 0 226.398438 Z M 0 74"/></clipPath></defs><g><g id="change1_1"><path d="M 175.699219 0 L 114.199219 0 L 0 152.199219 L 105.601562 152.199219 L 219.800781 0 L 175.699219 0" fill="#b3e4c5"/></g><g clip-path="url(#a)" id="change2_1"><path d="M 289.898438 74.199219 L 228.398438 74.199219 L 114.199219 226.398438 L 219.800781 226.398438 L 334 74.199219 L 289.898438 74.199219" fill="#b3e4c5"/></g><g clip-path="url(#b)" id="change3_1"><path d="M 105.601562 74.199219 L 0 74.199219 L 114.199219 226.398438 L 219.800781 226.398438 L 105.601562 74.199219" fill="#258671"/></g><g id="change4_1"><path d="M 219.800781 0 L 114.199219 0 L 228.398438 152.199219 L 334 152.199219 L 219.800781 0" fill="#258671"/></g></g></svg>